<svg width="20" height="21" viewBox="0 0 20 21" fill="none" xmlns="http://www.w3.org/2000/svg">
<path d="M0.591516 19.2237C0.415266 19.2237 0.245986 19.1448 0.13246 19.005C-0.00417557 18.8367 -0.0379199 18.6071 0.0449784 18.4066C0.266346 17.8703 2.24251 13.1296 3.42858 11.8154C3.55623 11.674 3.69122 11.5438 3.83281 11.4255C3.69104 11.307 3.55623 11.177 3.42858 11.0356C2.24251 9.72132 0.266167 4.98042 0.0447992 4.44416C-0.0384658 4.24278 -0.00399038 4.0117 0.134296 3.84334C0.272398 3.6748 0.492112 3.59575 0.706143 3.6383C0.959056 3.68837 3.18539 4.12871 3.466 4.19492C4.83969 4.5188 6.54937 4.92192 7.7226 6.13144C7.76588 6.17601 7.80862 6.22167 7.85044 6.26789L7.85098 6.26844C8.75204 7.26321 9.32261 8.61194 9.4576 10.0663C9.65567 12.2005 9.305 14.4118 8.51985 15.9811C7.6784 17.6629 6.16991 18.0145 4.71112 18.3543C4.50204 18.4031 4.28581 18.4536 4.0749 18.5071C2.96898 18.7888 0.792708 19.1965 0.700457 19.2138C0.663959 19.2204 0.627647 19.2237 0.591516 19.2237ZM1.5742 5.01637C2.3322 6.75427 3.58649 9.44476 4.30672 10.2429C4.56165 10.5254 4.85473 10.7412 5.17788 10.8846C5.39173 10.9794 5.52946 11.1913 5.52946 11.4251C5.52946 11.6589 5.39155 11.871 5.17788 11.9658C4.85473 12.1092 4.56147 12.3251 4.30654 12.6075C3.5854 13.4068 2.32908 16.1024 1.57144 17.8399C2.29057 17.697 3.20372 17.5081 3.78254 17.3607C4.0052 17.304 4.22731 17.2521 4.44225 17.202C5.79797 16.886 6.86868 16.6366 7.4618 15.4515C8.15231 14.0712 8.45823 12.0987 8.27959 10.1751C8.16973 8.99139 7.69399 7.85669 6.97431 7.06202C6.9413 7.0257 6.90792 6.98994 6.87362 6.95473C5.94102 5.99334 4.48168 5.64928 3.19438 5.34575C3.05701 5.31348 2.29332 5.15979 1.5742 5.01637Z" fill="#858666"/>
<path d="M19.4082 19.2229C19.3721 19.2229 19.3356 19.2196 19.2995 19.2128C19.2072 19.1955 17.031 18.7878 15.9251 18.5061C15.7143 18.4526 15.4979 18.4021 15.2888 18.3534C13.83 18.0135 12.3216 17.6619 11.4801 15.9802C10.6948 14.4106 10.3443 12.1994 10.5424 10.0651C10.6774 8.61076 11.2477 7.26185 12.149 6.26727L12.1495 6.26672C12.1915 6.2205 12.2341 6.17483 12.2777 6.13008C13.4506 4.92093 15.1603 4.51781 16.5341 4.19374C16.8146 4.12772 19.0409 3.68719 19.2938 3.63712C19.508 3.59512 19.7276 3.67362 19.8657 3.84216C20.0039 4.01071 20.0384 4.24161 19.9552 4.44298C19.7338 4.97925 17.7576 9.71996 16.5716 11.0344C16.4439 11.1758 16.3089 11.3058 16.1673 11.4243C16.3091 11.5428 16.4439 11.6728 16.5716 11.8142C17.7576 13.1285 19.7338 17.8694 19.9552 18.4054C20.0381 18.6059 20.0045 18.8357 19.8677 19.0039C19.7538 19.144 19.5843 19.2229 19.4082 19.2229ZM13.0253 7.06139C12.3056 7.85607 11.8297 8.99076 11.72 10.1744C11.5414 12.0981 11.8473 14.0706 12.5378 15.4509C13.1309 16.636 14.2016 16.8854 15.5573 17.2014C15.7723 17.2515 15.9944 17.3034 16.2169 17.3601C16.7959 17.5073 17.709 17.6964 18.4281 17.8393C17.6705 16.1017 16.4142 13.4061 15.6931 12.6069C15.4381 12.3244 15.1451 12.1086 14.8219 11.9651C14.608 11.8703 14.4703 11.6585 14.4703 11.4245C14.4703 11.1906 14.6082 10.9786 14.8219 10.884C15.1451 10.7406 15.4383 10.5247 15.6932 10.2423C16.4135 9.44413 17.6678 6.75364 18.4258 5.01574C17.7066 5.15916 16.9429 5.31285 16.8056 5.34513C15.5181 5.64884 14.0588 5.9929 13.1263 6.9541C13.0917 6.98931 13.0581 7.02508 13.0253 7.06139Z" fill="#858666"/>
<path d="M9.99982 5.84672C8.69509 5.84672 7.63354 4.7852 7.63354 3.48049C7.63354 2.17578 8.69509 1.11426 9.99982 1.11426C11.3045 1.11426 12.3661 2.17578 12.3661 3.48049C12.3661 4.7852 11.3047 5.84672 9.99982 5.84672ZM9.99982 2.29701C9.34727 2.29701 8.81632 2.82795 8.81632 3.48049C8.81632 4.13303 9.34709 4.66397 9.99982 4.66397C10.6524 4.66397 11.1831 4.13303 11.1831 3.48049C11.1831 2.82795 10.6524 2.29701 9.99982 2.29701Z" fill="#858666"/>
</svg>
