<svg xmlns="http://www.w3.org/2000/svg" width="76" height="50" viewBox="0 0 76 50" fill="none"><g clip-path="url(#clip0_740_2)"><mask id="mask0_740_2" style="mask-type:luminance" maskUnits="userSpaceOnUse" x="0" y="0" width="76" height="50"><path d="M0 50H76V0H0V50Z" fill="white"></path></mask><g mask="url(#mask0_740_2)"><path d="M71.9402 39.9314C69.9575 41.4268 67.4797 42.3543 64.9608 42.9205C62.3593 43.5176 59.6858 43.6708 57.0331 43.6279C52.0063 43.532 47.0627 42.6516 42.3155 41.0385C32.1402 37.5023 23.3086 31.0147 16.3152 22.8974C13.6334 19.7579 11.282 16.4948 9.03391 13.0046C10.0347 13.6658 11.2316 14.3478 12.4286 15.0297C16.1329 17.1273 20.0541 19.0496 24.0477 20.6622C24.8113 20.9414 25.689 20.5187 26.257 20.0236C26.5564 19.8174 27.4654 18.7238 26.7018 18.4446C22.9043 16.8527 19.1275 15.0648 15.5367 13.0188C13.7413 11.9959 12.0285 10.942 10.3157 9.88806C9.45931 9.36116 8.60291 8.83416 7.79821 8.19376C7.31321 7.90446 6.91081 7.58426 6.42591 7.29496C6.13701 7.02636 5.60041 6.85056 5.64191 6.45836C5.60091 6.09706 5.37381 5.99366 5.06421 5.92126C4.64111 5.79716 3.86681 5.99276 3.61901 6.08556C2.90661 6.44636 2.17341 7.00336 2.09041 7.78776C1.26031 14.8785 2.08171 22.1043 4.50331 28.8254C4.59601 29.0732 5.07081 29.0838 5.26691 29.1046C5.71081 29.0326 6.12381 28.878 6.50591 28.6408C6.93961 28.2901 7.72451 27.6197 7.47711 26.9589C5.92121 22.5505 5.05691 17.9774 4.91521 13.3221C10.1741 22.0886 16.9096 30.0199 25.2461 35.9395C33.6962 41.9106 43.9126 45.8082 54.3066 46.1551C61.1499 46.3244 68.0251 45.0693 73.6221 40.9026C73.9733 40.5829 74.7789 39.7163 74.0669 39.3237C73.4066 38.8175 72.374 39.5807 71.9402 39.9314Z" fill="#5DB93D"></path></g></g><defs><clipPath id="clip0_740_2"><rect width="76" height="50" fill="white" transform="matrix(-1 0 0 -1 76 50)"></rect></clipPath></defs></svg>