<svg xmlns="http://www.w3.org/2000/svg" width="76" height="50" viewBox="0 0 76 50" fill="none"><g clip-path="url(#clip0_740_2)"><mask id="mask0_740_2" style="mask-type:luminance" maskUnits="userSpaceOnUse" x="0" y="0" width="76" height="50"><path d="M0 0H76V50H0V0Z" fill="white"></path></mask><g mask="url(#mask0_740_2)"><path d="M71.9402 10.0686C69.9575 8.57317 67.4797 7.64569 64.9608 7.07951C62.3593 6.48242 59.6858 6.3292 57.0331 6.3721C52.0063 6.46804 47.0627 7.3484 42.3155 8.96151C32.1402 12.4977 23.3086 18.9853 16.3152 27.1026C13.6334 30.2421 11.282 33.5052 9.03391 36.9954C10.0347 36.3342 11.2316 35.6522 12.4286 34.9703C16.1329 32.8727 20.0541 30.9504 24.0477 29.3378C24.8113 29.0586 25.689 29.4813 26.257 29.9764C26.5564 30.1826 27.4654 31.2762 26.7018 31.5554C22.9043 33.1473 19.1275 34.9352 15.5367 36.9812C13.7413 38.0041 12.0285 39.058 10.3157 40.1119C9.45931 40.6388 8.60291 41.1658 7.79821 41.8062C7.31321 42.0955 6.91081 42.4157 6.42591 42.705C6.13701 42.9736 5.60041 43.1494 5.64191 43.5416C5.60091 43.9029 5.37381 44.0063 5.06421 44.0787C4.64111 44.2028 3.86681 44.0072 3.61901 43.9144C2.90661 43.5536 2.17341 42.9966 2.09041 42.2122C1.26031 35.1215 2.08171 27.8957 4.50331 21.1746C4.59601 20.9268 5.07081 20.9162 5.26691 20.8954C5.71081 20.9674 6.12381 21.122 6.50591 21.3592C6.93961 21.7099 7.72451 22.3803 7.47711 23.0411C5.92121 27.4495 5.05691 32.0226 4.91521 36.6779C10.1741 27.9114 16.9096 19.9801 25.2461 14.0605C33.6962 8.08936 43.9126 4.19179 54.3066 3.84487C61.1499 3.67558 68.0251 4.93069 73.6221 9.09737C73.9733 9.41714 74.7789 10.2837 74.0669 10.6763C73.4066 11.1825 72.374 10.4193 71.9402 10.0686Z" fill="#5DB93D"></path></g></g><defs><clipPath id="clip0_740_2"><rect width="76" height="50" fill="white" transform="matrix(-1 0 0 1 76 0)"></rect></clipPath></defs></svg>