<svg xmlns="http://www.w3.org/2000/svg" width="76" height="50" viewBox="0 0 76 50" fill="none"><g clip-path="url(#clip0_740_2)"><mask id="mask0_740_2" style="mask-type:luminance" maskUnits="userSpaceOnUse" x="0" y="0" width="76" height="50"><path d="M76 50H0V0H76V50Z" fill="white"></path></mask><g mask="url(#mask0_740_2)"><path d="M4.05976 39.9314C6.04248 41.4268 8.52031 42.3543 11.0392 42.9205C13.6407 43.5176 16.3142 43.6708 18.9669 43.6279C23.9937 43.532 28.9373 42.6516 33.6845 41.0385C43.8598 37.5023 52.6914 31.0147 59.6848 22.8974C62.3666 19.7579 64.718 16.4948 66.9661 13.0046C65.9653 13.6658 64.7684 14.3478 63.5714 15.0297C59.8671 17.1273 55.9459 19.0496 51.9523 20.6622C51.1887 20.9414 50.311 20.5187 49.743 20.0236C49.4436 19.8174 48.5346 18.7238 49.2982 18.4446C53.0957 16.8527 56.8725 15.0648 60.4633 13.0188C62.2587 11.9959 63.9715 10.942 65.6843 9.88806C66.5407 9.36116 67.3971 8.83416 68.2018 8.19376C68.6868 7.90446 69.0892 7.58426 69.5741 7.29496C69.863 7.02636 70.3996 6.85056 70.3581 6.45836C70.3991 6.09706 70.6262 5.99366 70.9358 5.92126C71.3589 5.79716 72.1332 5.99276 72.381 6.08556C73.0934 6.44636 73.8266 7.00336 73.9096 7.78776C74.7397 14.8785 73.9183 22.1043 71.4967 28.8254C71.404 29.0732 70.9292 29.0838 70.7331 29.1046C70.2892 29.0326 69.8762 28.878 69.4941 28.6408C69.0604 28.2901 68.2755 27.6197 68.5229 26.9589C70.0788 22.5505 70.9431 17.9774 71.0848 13.3221C65.8259 22.0886 59.0904 30.0199 50.7539 35.9395C42.3038 41.9106 32.0874 45.8082 21.6934 46.1551C14.8501 46.3244 7.97489 45.0693 2.37787 40.9026C2.02673 40.5829 1.22109 39.7163 1.93307 39.3237C2.59336 38.8175 3.62602 39.5807 4.05976 39.9314Z" fill="#5DB93D"></path></g></g><defs><clipPath id="clip0_740_2"><rect width="76" height="50" fill="white" transform="matrix(1 0 0 -1 0 50)"></rect></clipPath></defs></svg>